<?xml version="1.0" encoding="UTF-8" standalone="no"?><svg xmlns="http://www.w3.org/2000/svg" id="ie-info" width="25" height="33" viewBox="0 0 25 33" preserveAspectRatio="xMidYMid meet" rendering="crispEdges"><rect id="1-1" x="0" y="0" width="1" height="1" shape-rendering="crispEdges" style="fill:#000000;opacity:255;"></rect><rect id="2-1" x="1" y="0" width="1" height="1" shape-rendering="crispEdges" style="fill:#000000;opacity:255;"></rect><rect id="3-1" x="2" y="0" width="1" height="1" shape-rendering="crispEdges" style="fill:#000000;opacity:255;"></rect><rect id="4-1" x="3" y="0" width="1" height="1" shape-rendering="crispEdges" style="fill:#000000;opacity:255;"></rect><rect id="5-1" x="4" y="0" width="1" height="1" shape-rendering="crispEdges" style="fill:#000000;opacity:255;"></rect><rect id="6-1" x="5" y="0" width="1" height="1" shape-rendering="crispEdges" style="fill:#000000;opacity:255;"></rect><rect id="7-1" x="6" y="0" width="1" height="1" shape-rendering="crispEdges" style="fill:#000000;opacity:255;"></rect><rect id="8-1" x="7" y="0" width="1" height="1" shape-rendering="crispEdges" style="fill:#000000;opacity:255;"></rect><rect id="9-1" x="8" y="0" width="1" height="1" shape-rendering="crispEdges" style="fill:#000000;opacity:255;"></rect><rect id="10-1" x="9" y="0" width="1" height="1" shape-rendering="crispEdges" style="fill:#000000;opacity:255;"></rect><rect id="11-1" x="10" y="0" width="1" height="1" shape-rendering="crispEdges" style="fill:#000000;opacity:255;"></rect><rect id="12-1" x="11" y="0" width="1" height="1" shape-rendering="crispEdges" style="fill:#000000;opacity:255;"></rect><rect id="13-1" x="12" y="0" width="1" height="1" shape-rendering="crispEdges" style="fill:#000000;opacity:255;"></rect><rect id="14-1" x="13" y="0" width="1" height="1" shape-rendering="crispEdges" style="fill:#000000;opacity:255;"></rect><rect id="15-1" x="14" y="0" width="1" height="1" shape-rendering="crispEdges" style="fill:#000000;opacity:255;"></rect><rect id="16-1" x="15" y="0" width="1" height="1" shape-rendering="crispEdges" style="fill:#000000;opacity:255;"></rect><rect id="17-1" x="16" y="0" width="1" height="1" shape-rendering="crispEdges" style="fill:#000000;opacity:255;"></rect><rect id="18-1" x="17" y="0" width="1" height="1" shape-rendering="crispEdges" style="fill:#000000;opacity:255;"></rect><rect id="19-1" x="18" y="0" width="1" height="1" shape-rendering="crispEdges" style="fill:#000000;opacity:255;"></rect><rect id="1-2" x="0" y="1" width="1" height="1" shape-rendering="crispEdges" style="fill:#000000;opacity:255;"></rect><rect id="19-2" x="18" y="1" width="1" height="1" shape-rendering="crispEdges" style="fill:#000000;opacity:255;"></rect><rect id="20-2" x="19" y="1" width="1" height="1" shape-rendering="crispEdges" style="fill:#000000;opacity:255;"></rect><rect id="1-3" x="0" y="2" width="1" height="1" shape-rendering="crispEdges" style="fill:#000000;opacity:255;"></rect><rect id="19-3" x="18" y="2" width="1" height="1" shape-rendering="crispEdges" style="fill:#000000;opacity:255;"></rect><rect id="20-3" x="19" y="2" width="1" height="1" shape-rendering="crispEdges" style="fill:#000000;opacity:255;"></rect><rect id="21-3" x="20" y="2" width="1" height="1" shape-rendering="crispEdges" style="fill:#000000;opacity:255;"></rect><rect id="1-4" x="0" y="3" width="1" height="1" shape-rendering="crispEdges" style="fill:#000000;opacity:255;"></rect><rect id="19-4" x="18" y="3" width="1" height="1" shape-rendering="crispEdges" style="fill:#000000;opacity:255;"></rect><rect id="21-4" x="20" y="3" width="1" height="1" shape-rendering="crispEdges" style="fill:#000000;opacity:255;"></rect><rect id="22-4" x="21" y="3" width="1" height="1" shape-rendering="crispEdges" style="fill:#000000;opacity:255;"></rect><rect id="1-5" x="0" y="4" width="1" height="1" shape-rendering="crispEdges" style="fill:#000000;opacity:255;"></rect><rect id="19-5" x="18" y="4" width="1" height="1" shape-rendering="crispEdges" style="fill:#000000;opacity:255;"></rect><rect id="22-5" x="21" y="4" width="1" height="1" shape-rendering="crispEdges" style="fill:#000000;opacity:255;"></rect><rect id="23-5" x="22" y="4" width="1" height="1" shape-rendering="crispEdges" style="fill:#000000;opacity:255;"></rect><rect id="1-6" x="0" y="5" width="1" height="1" shape-rendering="crispEdges" style="fill:#000000;opacity:255;"></rect><rect id="19-6" x="18" y="5" width="1" height="1" shape-rendering="crispEdges" style="fill:#000000;opacity:255;"></rect><rect id="23-6" x="22" y="5" width="1" height="1" shape-rendering="crispEdges" style="fill:#000000;opacity:255;"></rect><rect id="24-6" x="23" y="5" width="1" height="1" shape-rendering="crispEdges" style="fill:#000000;opacity:255;"></rect><rect id="1-7" x="0" y="6" width="1" height="1" shape-rendering="crispEdges" style="fill:#000000;opacity:255;"></rect><rect id="19-7" x="18" y="6" width="1" height="1" shape-rendering="crispEdges" style="fill:#000000;opacity:255;"></rect><rect id="20-7" x="19" y="6" width="1" height="1" shape-rendering="crispEdges" style="fill:#000000;opacity:255;"></rect><rect id="21-7" x="20" y="6" width="1" height="1" shape-rendering="crispEdges" style="fill:#000000;opacity:255;"></rect><rect id="22-7" x="21" y="6" width="1" height="1" shape-rendering="crispEdges" style="fill:#000000;opacity:255;"></rect><rect id="23-7" x="22" y="6" width="1" height="1" shape-rendering="crispEdges" style="fill:#000000;opacity:255;"></rect><rect id="24-7" x="23" y="6" width="1" height="1" shape-rendering="crispEdges" style="fill:#000000;opacity:255;"></rect><rect id="25-7" x="24" y="6" width="1" height="1" shape-rendering="crispEdges" style="fill:#000000;opacity:255;"></rect><rect id="1-8" x="0" y="7" width="1" height="1" shape-rendering="crispEdges" style="fill:#000000;opacity:255;"></rect><rect id="25-8" x="24" y="7" width="1" height="1" shape-rendering="crispEdges" style="fill:#000000;opacity:255;"></rect><rect id="1-9" x="0" y="8" width="1" height="1" shape-rendering="crispEdges" style="fill:#000000;opacity:255;"></rect><rect id="25-9" x="24" y="8" width="1" height="1" shape-rendering="crispEdges" style="fill:#000000;opacity:255;"></rect><rect id="1-10" x="0" y="9" width="1" height="1" shape-rendering="crispEdges" style="fill:#000000;opacity:255;"></rect><rect id="25-10" x="24" y="9" width="1" height="1" shape-rendering="crispEdges" style="fill:#000000;opacity:255;"></rect><rect id="1-11" x="0" y="10" width="1" height="1" shape-rendering="crispEdges" style="fill:#000000;opacity:255;"></rect><rect id="11-11" x="10" y="10" width="1" height="1" shape-rendering="crispEdges" style="fill:#000000;opacity:255;"></rect><rect id="12-11" x="11" y="10" width="1" height="1" shape-rendering="crispEdges" style="fill:#000000;opacity:255;"></rect><rect id="13-11" x="12" y="10" width="1" height="1" shape-rendering="crispEdges" style="fill:#000000;opacity:255;"></rect><rect id="14-11" x="13" y="10" width="1" height="1" shape-rendering="crispEdges" style="fill:#000000;opacity:255;"></rect><rect id="25-11" x="24" y="10" width="1" height="1" shape-rendering="crispEdges" style="fill:#000000;opacity:255;"></rect><rect id="1-12" x="0" y="11" width="1" height="1" shape-rendering="crispEdges" style="fill:#000000;opacity:255;"></rect><rect id="10-12" x="9" y="11" width="1" height="1" shape-rendering="crispEdges" style="fill:#000000;opacity:255;"></rect><rect id="11-12" x="10" y="11" width="1" height="1" shape-rendering="crispEdges" style="fill:#000000;opacity:255;"></rect><rect id="14-12" x="13" y="11" width="1" height="1" shape-rendering="crispEdges" style="fill:#000000;opacity:255;"></rect><rect id="15-12" x="14" y="11" width="1" height="1" shape-rendering="crispEdges" style="fill:#000000;opacity:255;"></rect><rect id="25-12" x="24" y="11" width="1" height="1" shape-rendering="crispEdges" style="fill:#000000;opacity:255;"></rect><rect id="1-13" x="0" y="12" width="1" height="1" shape-rendering="crispEdges" style="fill:#000000;opacity:255;"></rect><rect id="10-13" x="9" y="12" width="1" height="1" shape-rendering="crispEdges" style="fill:#000000;opacity:255;"></rect><rect id="11-13" x="10" y="12" width="1" height="1" shape-rendering="crispEdges" style="fill:#000000;opacity:255;"></rect><rect id="14-13" x="13" y="12" width="1" height="1" shape-rendering="crispEdges" style="fill:#000000;opacity:255;"></rect><rect id="15-13" x="14" y="12" width="1" height="1" shape-rendering="crispEdges" style="fill:#000000;opacity:255;"></rect><rect id="25-13" x="24" y="12" width="1" height="1" shape-rendering="crispEdges" style="fill:#000000;opacity:255;"></rect><rect id="1-14" x="0" y="13" width="1" height="1" shape-rendering="crispEdges" style="fill:#000000;opacity:255;"></rect><rect id="11-14" x="10" y="13" width="1" height="1" shape-rendering="crispEdges" style="fill:#000000;opacity:255;"></rect><rect id="12-14" x="11" y="13" width="1" height="1" shape-rendering="crispEdges" style="fill:#000000;opacity:255;"></rect><rect id="13-14" x="12" y="13" width="1" height="1" shape-rendering="crispEdges" style="fill:#000000;opacity:255;"></rect><rect id="14-14" x="13" y="13" width="1" height="1" shape-rendering="crispEdges" style="fill:#000000;opacity:255;"></rect><rect id="25-14" x="24" y="13" width="1" height="1" shape-rendering="crispEdges" style="fill:#000000;opacity:255;"></rect><rect id="1-15" x="0" y="14" width="1" height="1" shape-rendering="crispEdges" style="fill:#000000;opacity:255;"></rect><rect id="25-15" x="24" y="14" width="1" height="1" shape-rendering="crispEdges" style="fill:#000000;opacity:255;"></rect><rect id="1-16" x="0" y="15" width="1" height="1" shape-rendering="crispEdges" style="fill:#000000;opacity:255;"></rect><rect id="25-16" x="24" y="15" width="1" height="1" shape-rendering="crispEdges" style="fill:#000000;opacity:255;"></rect><rect id="1-17" x="0" y="16" width="1" height="1" shape-rendering="crispEdges" style="fill:#000000;opacity:255;"></rect><rect id="9-17" x="8" y="16" width="1" height="1" shape-rendering="crispEdges" style="fill:#000000;opacity:255;"></rect><rect id="10-17" x="9" y="16" width="1" height="1" shape-rendering="crispEdges" style="fill:#000000;opacity:255;"></rect><rect id="11-17" x="10" y="16" width="1" height="1" shape-rendering="crispEdges" style="fill:#000000;opacity:255;"></rect><rect id="12-17" x="11" y="16" width="1" height="1" shape-rendering="crispEdges" style="fill:#000000;opacity:255;"></rect><rect id="13-17" x="12" y="16" width="1" height="1" shape-rendering="crispEdges" style="fill:#000000;opacity:255;"></rect><rect id="14-17" x="13" y="16" width="1" height="1" shape-rendering="crispEdges" style="fill:#000000;opacity:255;"></rect><rect id="15-17" x="14" y="16" width="1" height="1" shape-rendering="crispEdges" style="fill:#000000;opacity:255;"></rect><rect id="25-17" x="24" y="16" width="1" height="1" shape-rendering="crispEdges" style="fill:#000000;opacity:255;"></rect><rect id="1-18" x="0" y="17" width="1" height="1" shape-rendering="crispEdges" style="fill:#000000;opacity:255;"></rect><rect id="10-18" x="9" y="17" width="1" height="1" shape-rendering="crispEdges" style="fill:#000000;opacity:255;"></rect><rect id="11-18" x="10" y="17" width="1" height="1" shape-rendering="crispEdges" style="fill:#000000;opacity:255;"></rect><rect id="15-18" x="14" y="17" width="1" height="1" shape-rendering="crispEdges" style="fill:#000000;opacity:255;"></rect><rect id="25-18" x="24" y="17" width="1" height="1" shape-rendering="crispEdges" style="fill:#000000;opacity:255;"></rect><rect id="1-19" x="0" y="18" width="1" height="1" shape-rendering="crispEdges" style="fill:#000000;opacity:255;"></rect><rect id="11-19" x="10" y="18" width="1" height="1" shape-rendering="crispEdges" style="fill:#000000;opacity:255;"></rect><rect id="15-19" x="14" y="18" width="1" height="1" shape-rendering="crispEdges" style="fill:#000000;opacity:255;"></rect><rect id="25-19" x="24" y="18" width="1" height="1" shape-rendering="crispEdges" style="fill:#000000;opacity:255;"></rect><rect id="1-20" x="0" y="19" width="1" height="1" shape-rendering="crispEdges" style="fill:#000000;opacity:255;"></rect><rect id="11-20" x="10" y="19" width="1" height="1" shape-rendering="crispEdges" style="fill:#000000;opacity:255;"></rect><rect id="15-20" x="14" y="19" width="1" height="1" shape-rendering="crispEdges" style="fill:#000000;opacity:255;"></rect><rect id="25-20" x="24" y="19" width="1" height="1" shape-rendering="crispEdges" style="fill:#000000;opacity:255;"></rect><rect id="1-21" x="0" y="20" width="1" height="1" shape-rendering="crispEdges" style="fill:#000000;opacity:255;"></rect><rect id="11-21" x="10" y="20" width="1" height="1" shape-rendering="crispEdges" style="fill:#000000;opacity:255;"></rect><rect id="15-21" x="14" y="20" width="1" height="1" shape-rendering="crispEdges" style="fill:#000000;opacity:255;"></rect><rect id="25-21" x="24" y="20" width="1" height="1" shape-rendering="crispEdges" style="fill:#000000;opacity:255;"></rect><rect id="1-22" x="0" y="21" width="1" height="1" shape-rendering="crispEdges" style="fill:#000000;opacity:255;"></rect><rect id="11-22" x="10" y="21" width="1" height="1" shape-rendering="crispEdges" style="fill:#000000;opacity:255;"></rect><rect id="15-22" x="14" y="21" width="1" height="1" shape-rendering="crispEdges" style="fill:#000000;opacity:255;"></rect><rect id="25-22" x="24" y="21" width="1" height="1" shape-rendering="crispEdges" style="fill:#000000;opacity:255;"></rect><rect id="1-23" x="0" y="22" width="1" height="1" shape-rendering="crispEdges" style="fill:#000000;opacity:255;"></rect><rect id="11-23" x="10" y="22" width="1" height="1" shape-rendering="crispEdges" style="fill:#000000;opacity:255;"></rect><rect id="15-23" x="14" y="22" width="1" height="1" shape-rendering="crispEdges" style="fill:#000000;opacity:255;"></rect><rect id="25-23" x="24" y="22" width="1" height="1" shape-rendering="crispEdges" style="fill:#000000;opacity:255;"></rect><rect id="1-24" x="0" y="23" width="1" height="1" shape-rendering="crispEdges" style="fill:#000000;opacity:255;"></rect><rect id="10-24" x="9" y="23" width="1" height="1" shape-rendering="crispEdges" style="fill:#000000;opacity:255;"></rect><rect id="11-24" x="10" y="23" width="1" height="1" shape-rendering="crispEdges" style="fill:#000000;opacity:255;"></rect><rect id="15-24" x="14" y="23" width="1" height="1" shape-rendering="crispEdges" style="fill:#000000;opacity:255;"></rect><rect id="16-24" x="15" y="23" width="1" height="1" shape-rendering="crispEdges" style="fill:#000000;opacity:255;"></rect><rect id="25-24" x="24" y="23" width="1" height="1" shape-rendering="crispEdges" style="fill:#000000;opacity:255;"></rect><rect id="1-25" x="0" y="24" width="1" height="1" shape-rendering="crispEdges" style="fill:#000000;opacity:255;"></rect><rect id="9-25" x="8" y="24" width="1" height="1" shape-rendering="crispEdges" style="fill:#000000;opacity:255;"></rect><rect id="10-25" x="9" y="24" width="1" height="1" shape-rendering="crispEdges" style="fill:#000000;opacity:255;"></rect><rect id="11-25" x="10" y="24" width="1" height="1" shape-rendering="crispEdges" style="fill:#000000;opacity:255;"></rect><rect id="12-25" x="11" y="24" width="1" height="1" shape-rendering="crispEdges" style="fill:#000000;opacity:255;"></rect><rect id="13-25" x="12" y="24" width="1" height="1" shape-rendering="crispEdges" style="fill:#000000;opacity:255;"></rect><rect id="14-25" x="13" y="24" width="1" height="1" shape-rendering="crispEdges" style="fill:#000000;opacity:255;"></rect><rect id="15-25" x="14" y="24" width="1" height="1" shape-rendering="crispEdges" style="fill:#000000;opacity:255;"></rect><rect id="16-25" x="15" y="24" width="1" height="1" shape-rendering="crispEdges" style="fill:#000000;opacity:255;"></rect><rect id="17-25" x="16" y="24" width="1" height="1" shape-rendering="crispEdges" style="fill:#000000;opacity:255;"></rect><rect id="25-25" x="24" y="24" width="1" height="1" shape-rendering="crispEdges" style="fill:#000000;opacity:255;"></rect><rect id="1-26" x="0" y="25" width="1" height="1" shape-rendering="crispEdges" style="fill:#000000;opacity:255;"></rect><rect id="25-26" x="24" y="25" width="1" height="1" shape-rendering="crispEdges" style="fill:#000000;opacity:255;"></rect><rect id="1-27" x="0" y="26" width="1" height="1" shape-rendering="crispEdges" style="fill:#000000;opacity:255;"></rect><rect id="25-27" x="24" y="26" width="1" height="1" shape-rendering="crispEdges" style="fill:#000000;opacity:255;"></rect><rect id="1-28" x="0" y="27" width="1" height="1" shape-rendering="crispEdges" style="fill:#000000;opacity:255;"></rect><rect id="25-28" x="24" y="27" width="1" height="1" shape-rendering="crispEdges" style="fill:#000000;opacity:255;"></rect><rect id="1-29" x="0" y="28" width="1" height="1" shape-rendering="crispEdges" style="fill:#000000;opacity:255;"></rect><rect id="25-29" x="24" y="28" width="1" height="1" shape-rendering="crispEdges" style="fill:#000000;opacity:255;"></rect><rect id="1-30" x="0" y="29" width="1" height="1" shape-rendering="crispEdges" style="fill:#000000;opacity:255;"></rect><rect id="25-30" x="24" y="29" width="1" height="1" shape-rendering="crispEdges" style="fill:#000000;opacity:255;"></rect><rect id="1-31" x="0" y="30" width="1" height="1" shape-rendering="crispEdges" style="fill:#000000;opacity:255;"></rect><rect id="25-31" x="24" y="30" width="1" height="1" shape-rendering="crispEdges" style="fill:#000000;opacity:255;"></rect><rect id="1-32" x="0" y="31" width="1" height="1" shape-rendering="crispEdges" style="fill:#000000;opacity:255;"></rect><rect id="25-32" x="24" y="31" width="1" height="1" shape-rendering="crispEdges" style="fill:#000000;opacity:255;"></rect><rect id="1-33" x="0" y="32" width="1" height="1" shape-rendering="crispEdges" style="fill:#000000;opacity:255;"></rect><rect id="2-33" x="1" y="32" width="1" height="1" shape-rendering="crispEdges" style="fill:#000000;opacity:255;"></rect><rect id="3-33" x="2" y="32" width="1" height="1" shape-rendering="crispEdges" style="fill:#000000;opacity:255;"></rect><rect id="4-33" x="3" y="32" width="1" height="1" shape-rendering="crispEdges" style="fill:#000000;opacity:255;"></rect><rect id="5-33" x="4" y="32" width="1" height="1" shape-rendering="crispEdges" style="fill:#000000;opacity:255;"></rect><rect id="6-33" x="5" y="32" width="1" height="1" shape-rendering="crispEdges" style="fill:#000000;opacity:255;"></rect><rect id="7-33" x="6" y="32" width="1" height="1" shape-rendering="crispEdges" style="fill:#000000;opacity:255;"></rect><rect id="8-33" x="7" y="32" width="1" height="1" shape-rendering="crispEdges" style="fill:#000000;opacity:255;"></rect><rect id="9-33" x="8" y="32" width="1" height="1" shape-rendering="crispEdges" style="fill:#000000;opacity:255;"></rect><rect id="10-33" x="9" y="32" width="1" height="1" shape-rendering="crispEdges" style="fill:#000000;opacity:255;"></rect><rect id="11-33" x="10" y="32" width="1" height="1" shape-rendering="crispEdges" style="fill:#000000;opacity:255;"></rect><rect id="12-33" x="11" y="32" width="1" height="1" shape-rendering="crispEdges" style="fill:#000000;opacity:255;"></rect><rect id="13-33" x="12" y="32" width="1" height="1" shape-rendering="crispEdges" style="fill:#000000;opacity:255;"></rect><rect id="14-33" x="13" y="32" width="1" height="1" shape-rendering="crispEdges" style="fill:#000000;opacity:255;"></rect><rect id="15-33" x="14" y="32" width="1" height="1" shape-rendering="crispEdges" style="fill:#000000;opacity:255;"></rect><rect id="16-33" x="15" y="32" width="1" height="1" shape-rendering="crispEdges" style="fill:#000000;opacity:255;"></rect><rect id="17-33" x="16" y="32" width="1" height="1" shape-rendering="crispEdges" style="fill:#000000;opacity:255;"></rect><rect id="18-33" x="17" y="32" width="1" height="1" shape-rendering="crispEdges" style="fill:#000000;opacity:255;"></rect><rect id="19-33" x="18" y="32" width="1" height="1" shape-rendering="crispEdges" style="fill:#000000;opacity:255;"></rect><rect id="20-33" x="19" y="32" width="1" height="1" shape-rendering="crispEdges" style="fill:#000000;opacity:255;"></rect><rect id="21-33" x="20" y="32" width="1" height="1" shape-rendering="crispEdges" style="fill:#000000;opacity:255;"></rect><rect id="22-33" x="21" y="32" width="1" height="1" shape-rendering="crispEdges" style="fill:#000000;opacity:255;"></rect><rect id="23-33" x="22" y="32" width="1" height="1" shape-rendering="crispEdges" style="fill:#000000;opacity:255;"></rect><rect id="24-33" x="23" y="32" width="1" height="1" shape-rendering="crispEdges" style="fill:#000000;opacity:255;"></rect><rect id="25-33" x="24" y="32" width="1" height="1" shape-rendering="crispEdges" style="fill:#000000;opacity:255;"></rect></svg>